# xmcd CD database file
#
# Track frame offsets:
#	150
#	10672
#	18455
#	29731
#	39121
#	48946
#	58690
#	71376
#	83093
#	94536
#	103366
#	113781
#	126971
#	138735
#	150936
#	161437
#	168970
#	182813
#	192875
#	203382
#
# Disc length: 2847 seconds
#
# Revision: 0
# Processed by: cddbd v1.5.2PL0 Copyright (c) Steve Scherf et al.
# Submitted via: CDex 1.51
#
DISCID=fb0b1d14
DTITLE=Jim Reeves - BT3037_3
DYEAR=1960
DGENRE=Country
TTITLE0=Jim Reeves - Two Shadows on Your Window [*]
TTITLE1=Jim Reeves - Waiting For A Train
TTITLE2=Jim Reeves - Anna Marie
TTITLE3=Jim Reeves - Billy Bayou [*]
TTITLE4=Jim Reeves - Blue Boy [*]
TTITLE5=Jim Reeves - Charmaine
TTITLE6=Jim Reeves - Goodnight Irene
TTITLE7=Jim Reeves - Mona Lisa
TTITLE8=Jim Reeves - Roly Poly
TTITLE9=Jim Reeves - Home
TTITLE10=Jim Reeves - In The Garden
TTITLE11=Jim Reeves - It Is No Secret (What God Can Do)
TTITLE12=Jim Reeves - May The Lord Bless And Keep You
TTITLE13=Jim Reeves - Precious Memories
TTITLE14=Jim Reeves - Scarlet Ribbons For Her Hair
TTITLE15=Jim Reeves - Teach Me How To Pray
TTITLE16=Jim Reeves - Whispering Hope
TTITLE17=Jim Reeves - A Beautiful Life
TTITLE18=Jim Reeves - He'll Have To Go
TTITLE19=Jim Reeves - I'm Getting' Better
EXTD=YEAR: 1960
EXTT0=
EXTT1=
EXTT2=
EXTT3=
EXTT4=
EXTT5=
EXTT6=
EXTT7=
EXTT8=
EXTT9=
EXTT10=
EXTT11=
EXTT12=
EXTT13=
EXTT14=
EXTT15=
EXTT16=
EXTT17=
EXTT18=
EXTT19=
PLAYORDER=
